<svg width="65" height="64" viewBox="0 0 65 64" fill="none" xmlns="http://www.w3.org/2000/svg">
<g clip-path="url(#clip0_2072_2047)">
<path fill-rule="evenodd" clip-rule="evenodd" d="M39.6734 6.02663C35.1816 6.27758 30.7202 6.92002 26.3401 7.94663C25.6734 7.94663 20.8201 8.66663 20.2601 8.90663C20.1566 8.93037 20.0594 8.97589 19.975 9.04015C19.8905 9.10442 19.8207 9.18596 19.7702 9.27933C19.7198 9.37269 19.6898 9.47575 19.6823 9.58162C19.6748 9.68749 19.6899 9.79374 19.7267 9.89329C20.0734 10.9066 28.4734 9.89329 40.0734 8.95996C43.5401 8.50663 45.9401 7.78663 49.1934 7.14663C50.9085 6.89843 52.5961 6.4877 54.2334 5.91996C54.287 5.81928 54.3192 5.70859 54.328 5.59486C54.3368 5.48113 54.3219 5.36681 54.2843 5.25911C54.2467 5.15141 54.1873 5.05264 54.1097 4.96903C54.0321 4.88543 53.938 4.81878 53.8334 4.77329C53.3534 4.26663 52.8201 4.55996 39.6734 6.02663Z" fill="#343434"/>
<path fill-rule="evenodd" clip-rule="evenodd" d="M57.6734 42.6666V11.7066C57.6734 11.44 58.0734 10.3733 56.9001 10.3733C56.66 10.3733 52.5 11.2 52.2334 11.2533L43.5134 11.9466C37.9667 12.48 32.3934 12.6666 26.8467 13.04C19.3001 13.5733 18.8467 14.0533 15.7534 13.6533C14.6067 13.4933 13.4601 13.36 13.0867 12.6666C12.9113 12.2074 12.8812 11.7053 13.0005 11.2284C13.1197 10.7515 13.3825 10.3227 13.7534 9.99997C16.5001 6.63997 22.1267 5.33331 26.3667 4.29331C36.1534 1.91997 39.5134 2.79997 46.3934 2.34664C50.3134 2.07997 52.7934 1.81331 52.5267 0.613307C52.5078 0.5107 52.4683 0.412988 52.4105 0.326054C52.3528 0.239121 52.2781 0.164765 52.1909 0.107462C52.1037 0.0501595 52.0058 0.0110959 51.9032 -0.00737669C51.8005 -0.0258493 51.6951 -0.0233489 51.5934 -2.5874e-05C42.0734 2.05331 37.0067 -2.02669 18.2334 3.70664C8.50005 6.79997 5.83339 17.04 18.2601 16.7733C16.4956 29.8966 16.0935 43.1672 17.0601 56.3733C17.0601 58.5333 17.0601 59.84 17.8601 60.1066C19.4334 60.56 19.1134 58.1066 19.0334 56.3733C19.0334 40.8 19.7534 46 19.7801 27.04C19.7801 15.4666 19.7801 16.56 20.0467 16.5333C28.6067 15.3066 46.7134 14.2666 55.7534 12.4C54.9534 65.7333 55.4601 33.8666 55.5667 48.3733C55.5941 49.1147 55.5405 49.8569 55.4067 50.5866C55.0867 52.5866 32.6601 58.4533 27.7534 59.6533C21.4867 61.2266 16.6601 61.68 10.7401 58.96C8.07338 53.4133 9.08672 24.4266 9.59339 18.96C9.6146 18.7549 9.55347 18.5497 9.42345 18.3897C9.29342 18.2297 9.10515 18.1279 8.90005 18.1066C8.69495 18.0854 8.48982 18.1466 8.32979 18.2766C8.16976 18.4066 8.06794 18.5949 8.04672 18.8C7.38005 24.2933 5.64672 52.3733 7.83338 59.2C8.42005 61.0666 9.22005 61.44 10.8734 62.1333C14.3027 63.6964 18.08 64.3398 21.8334 64C30.9495 62.486 39.8855 60.0375 48.5001 56.6933C50.8331 56.0719 53.1226 55.2968 55.3534 54.3733C59.8601 51.9466 57.7267 47.4133 57.6734 42.6666Z" fill="#343434"/>
<path fill-rule="evenodd" clip-rule="evenodd" d="M27.1668 35.2267C28.8468 35.68 30.6068 35.2267 42.3401 33.1733C44.1001 32.8533 46.8201 32.6933 47.6734 31.0133C48.1768 29.4275 48.2776 27.7412 47.9668 26.1067C47.9668 24.8267 49.4868 19.12 46.2601 19.2533C46.1001 19.2533 27.0068 22.24 25.8068 22.2667C25.5734 22.2667 25.3495 22.3594 25.1845 22.5244C25.0195 22.6894 24.9268 22.9133 24.9268 23.1467C24.9268 23.84 25.1668 22.4267 24.9268 26.72C25.1401 29.7067 23.6734 34.2133 27.1668 35.2267ZM26.9268 24C28.9534 24 23.4601 24.16 46.1001 22.2133C45.4868 30.9867 45.8868 29.44 41.9134 30.2133C28.8201 32.88 27.8868 33.4667 27.3268 32.88C26.7668 32.2933 27.1668 28.2667 26.9801 26.6667C26.9801 26.5067 26.9001 24.9333 26.9268 24Z" fill="#003366"/>
<path fill-rule="evenodd" clip-rule="evenodd" d="M45.2467 40C45.3428 39.8317 45.39 39.6399 45.3829 39.4463C45.3758 39.2526 45.3148 39.0648 45.2066 38.904C45.0985 38.7431 44.9476 38.6157 44.7709 38.5361C44.5942 38.4565 44.3988 38.4278 44.2067 38.4533C43.4334 38.4533 41.5401 38.6667 41.0601 38.6667C36.9353 38.5909 32.819 39.0662 28.8201 40.08C27.1667 39.8933 27.5401 41.0667 28.3934 41.4933C30.5267 43.3067 44.6867 40.6133 45.2467 40Z" fill="#003366"/>
<path fill-rule="evenodd" clip-rule="evenodd" d="M28.7934 52.1067C29.4028 52.1111 30.0109 52.0484 30.6067 51.92C32.6417 51.8726 34.672 51.7034 36.6867 51.4133C39.86 50.88 42.82 49.76 45.6734 49.52C45.8838 49.4835 46.0746 49.3739 46.2122 49.2104C46.3497 49.047 46.4251 48.8403 46.4251 48.6267C46.4251 48.4131 46.3497 48.2063 46.2122 48.0429C46.0746 47.8795 45.8838 47.7698 45.6734 47.7333C38.42 47.12 28.5 50.4 28.2867 51.0133C28.0734 51.6267 28.42 51.92 28.7934 52.1067Z" fill="#003366"/>
</g>
<defs>
<clipPath id="clip0_2072_2047">
<rect width="64" height="64" fill="white" transform="translate(0.5)"/>
</clipPath>
</defs>
</svg>
